<svg width="34" height="48" viewBox="0 0 34 48" fill="none" xmlns="http://www.w3.org/2000/svg">
<g clip-path="url(#clip0_1_1734)">
<path d="M32.8268 0H1.17712C0.526195 0 0 0.519522 0 1.16219V46.8417C0 47.4843 0.526195 48.0038 1.17712 48.0038H32.8268C33.4777 48.0038 34.0039 47.4843 34.0039 46.8417V1.16219C34 0.519522 33.4738 0 32.8268 0Z" fill="url(#paint0_linear_1_1734)"/>
<path d="M30.7493 2.07031H3.25072C2.61928 2.07031 2.10478 2.57829 2.10478 3.20556V40.9729C2.10478 41.6002 2.61928 42.1043 3.25072 42.1043H30.7493C31.3846 42.1043 31.8952 41.5963 31.8952 40.9729V3.20556C31.8952 2.57829 31.3846 2.07031 30.7493 2.07031Z" fill="white"/>
<path d="M22.6225 20.0266H11.3814C10.8669 20.0266 10.4498 19.6148 10.4498 19.1068V8.00446C10.4498 7.49649 10.8669 7.08472 11.3814 7.08472H22.6225C23.137 7.08472 23.5541 7.49649 23.5541 8.00446V19.103C23.5541 19.611 23.137 20.0266 22.6225 20.0266Z" fill="url(#paint1_linear_1_1734)"/>
<path d="M17.002 46.7608C17.9577 46.7608 18.7326 45.9958 18.7326 45.0521C18.7326 44.1085 17.9577 43.3435 17.002 43.3435C16.0462 43.3435 15.2714 44.1085 15.2714 45.0521C15.2714 45.9958 16.0462 46.7608 17.002 46.7608Z" fill="white"/>
<path d="M26.797 25.776H7.20302C6.70801 25.776 6.30264 25.3757 6.30264 24.887C6.30264 24.3983 6.70801 23.998 7.20302 23.998H26.7931C27.2881 23.998 27.6935 24.3983 27.6935 24.887C27.6935 25.3757 27.292 25.776 26.797 25.776Z" fill="url(#paint2_linear_1_1734)"/>
<path opacity="0.6" d="M23.48 30.7019H6.87562C6.5599 30.7019 6.30655 30.4479 6.30655 30.14V30.0785C6.30655 29.7667 6.5638 29.5166 6.87562 29.5166H23.48C23.7957 29.5166 24.0491 29.7706 24.0491 30.0785V30.14C24.053 30.4479 23.7957 30.7019 23.48 30.7019Z" fill="url(#paint3_linear_1_1734)"/>
<path opacity="0.3" d="M20.3189 33.8304H6.82104C6.53651 33.8304 6.30264 33.5995 6.30264 33.3186V33.1493C6.30264 32.8684 6.53651 32.6375 6.82104 32.6375H20.315C20.5996 32.6375 20.8334 32.8684 20.8334 33.1493V33.3186C20.8334 33.5995 20.5996 33.8304 20.3189 33.8304Z" fill="url(#paint4_linear_1_1734)"/>
<path opacity="0.6" d="M22.0183 36.7282H6.85223C6.55211 36.7282 6.30655 36.4858 6.30655 36.1895V36.0817C6.30655 35.7854 6.55211 35.543 6.85223 35.543H22.0183C22.3185 35.543 22.564 35.7854 22.564 36.0817V36.1895C22.564 36.482 22.3185 36.7282 22.0183 36.7282Z" fill="url(#paint5_linear_1_1734)"/>
<path d="M17.0357 13.198C18.1613 13.198 19.0736 12.2852 19.0736 11.1591C19.0736 10.0329 18.1613 9.12012 17.0357 9.12012C15.9102 9.12012 14.9979 10.0329 14.9979 11.1591C14.9979 12.2852 15.906 13.198 17.0357 13.198ZM17.0357 14.2175C15.6757 14.2175 12.96 14.8999 12.96 16.2564V16.7683C12.96 17.0498 13.1902 17.2801 13.4716 17.2801H20.6084C20.8898 17.2801 21.12 17.0498 21.12 16.7683V16.2564C21.1115 14.9042 18.3957 14.2175 17.0357 14.2175Z" fill="white"/>
</g>
<defs>
<linearGradient id="paint0_linear_1_1734" x1="2.05995" y1="22.7521" x2="34.0267" y2="25.4925" gradientUnits="userSpaceOnUse">
<stop stop-color="#6CBCFC"/>
<stop offset="1" stop-color="#458DFC"/>
</linearGradient>
<linearGradient id="paint1_linear_1_1734" x1="9.43365" y1="9.74769" x2="24.4878" y2="17.5167" gradientUnits="userSpaceOnUse">
<stop stop-color="#B0F4FF"/>
<stop offset="0.0856277" stop-color="#A3F0FE"/>
<stop offset="0.2972" stop-color="#8AE7FD"/>
<stop offset="0.5161" stop-color="#77E1FD"/>
<stop offset="0.7451" stop-color="#6DDDFC"/>
<stop offset="1" stop-color="#69DCFC"/>
</linearGradient>
<linearGradient id="paint2_linear_1_1734" x1="27.6953" y1="24.8877" x2="6.30632" y2="24.8877" gradientUnits="userSpaceOnUse">
<stop stop-color="#6CBCFC"/>
<stop offset="1" stop-color="#458DFC"/>
</linearGradient>
<linearGradient id="paint3_linear_1_1734" x1="24.0519" y1="30.1075" x2="6.30633" y2="30.1075" gradientUnits="userSpaceOnUse">
<stop stop-color="#6CBCFC"/>
<stop offset="1" stop-color="#458DFC"/>
</linearGradient>
<linearGradient id="paint4_linear_1_1734" x1="20.8338" y1="33.2361" x2="6.30632" y2="33.2361" gradientUnits="userSpaceOnUse">
<stop stop-color="#6CBCFC"/>
<stop offset="1" stop-color="#458DFC"/>
</linearGradient>
<linearGradient id="paint5_linear_1_1734" x1="22.5637" y1="36.1325" x2="6.30633" y2="36.1325" gradientUnits="userSpaceOnUse">
<stop stop-color="#6CBCFC"/>
<stop offset="1" stop-color="#458DFC"/>
</linearGradient>
<clipPath id="clip0_1_1734">
<rect width="34" height="48" fill="white"/>
</clipPath>
</defs>
</svg>
