<svg width="47" height="48" viewBox="0 0 47 48" fill="none" xmlns="http://www.w3.org/2000/svg">
<g clip-path="url(#clip0_1_1758)">
<path d="M39.0544 9.45142H7.78931V47.9814H39.0544V9.45142Z" fill="url(#paint0_linear_1_1758)"/>
<path d="M7.65993 9.45145C7.69766 9.45145 7.73539 9.47001 7.7893 9.48858C7.7893 22.3072 7.7893 35.1257 7.7893 47.9629C5.36895 48.1795 3.32594 47.4801 1.7034 45.6851C0.555213 44.41 -1.10853e-05 42.9122 -1.10853e-05 41.2162C-1.10853e-05 35.2124 -1.10853e-05 29.2147 -1.10853e-05 23.2108C-1.10853e-05 20.9207 -0.00540161 18.6306 -0.00540161 16.3404C-0.00540161 13.5737 1.29372 11.5621 3.68172 10.2004C4.91076 9.50715 6.27456 9.40193 7.65993 9.45145Z" fill="url(#paint1_linear_1_1758)"/>
<path d="M33.5937 9.44517C34.9899 9.44517 35.13 9.44517 36.5208 9.44517C36.5208 22.3071 36.5208 35.1256 36.5208 47.9689C27.0281 47.9689 19.8479 47.9689 10.3228 47.9689C10.3228 35.1318 10.3228 22.3132 10.3228 9.45755C11.7136 9.45755 12.0155 9.45755 13.4332 9.45755C13.4332 9.29662 13.4332 9.17283 13.4332 9.05522C13.4332 7.67495 13.4386 6.28849 13.4278 4.90822C13.417 3.94265 13.6434 3.10087 14.3011 2.44478C14.7646 1.98675 15.2983 1.75155 15.902 1.75155C17.7726 1.74536 19.6377 1.74536 21.5082 1.74536C24.6509 1.74536 27.7989 1.75155 30.9416 1.74536C31.7664 1.74536 32.451 2.05484 32.99 2.77283C33.4213 3.34846 33.583 4.02312 33.583 4.77824C33.5776 6.23279 33.583 7.68733 33.583 9.14188C33.5776 9.22234 33.583 9.31519 33.5937 9.44517ZM16.8076 9.44517C16.937 9.44517 17.0341 9.44517 17.1311 9.44517C18.6189 9.44517 20.112 9.44517 21.5998 9.44517C24.3813 9.44517 27.1682 9.44517 29.9498 9.45136C30.1708 9.45136 30.2193 9.37089 30.2193 9.1295C30.2085 8.04633 30.2193 6.96316 30.2193 5.87998C30.2193 5.79333 30.2085 5.70668 30.1977 5.61383C25.7236 5.61383 21.2764 5.61383 16.8076 5.61383C16.8076 6.88888 16.8076 8.13917 16.8076 9.44517Z" fill="white"/>
<mask id="mask0_1_1758" style="mask-type:alpha" maskUnits="userSpaceOnUse" x="10" y="1" width="27" height="47">
<path d="M33.5937 9.44517C34.9899 9.44517 35.13 9.44517 36.5208 9.44517C36.5208 22.3071 36.5208 35.1256 36.5208 47.9689C27.0281 47.9689 19.8479 47.9689 10.3228 47.9689C10.3228 35.1318 10.3228 22.3132 10.3228 9.45755C11.7136 9.45755 12.0155 9.45755 13.4332 9.45755C13.4332 9.29662 13.4332 9.17283 13.4332 9.05522C13.4332 7.67495 13.4386 6.28849 13.4278 4.90822C13.417 3.94265 13.6434 3.10087 14.3011 2.44478C14.7646 1.98675 15.2983 1.75155 15.902 1.75155C17.7726 1.74536 19.6377 1.74536 21.5082 1.74536C24.6509 1.74536 27.7989 1.75155 30.9416 1.74536C31.7664 1.74536 32.451 2.05484 32.99 2.77283C33.4212 3.34846 33.583 4.02312 33.583 4.77824C33.5776 6.23279 33.583 7.68733 33.583 9.14188C33.5776 9.22234 33.583 9.31519 33.5937 9.44517ZM16.8076 9.44517C16.937 9.44517 17.034 9.44517 17.1311 9.44517C18.6189 9.44517 20.112 9.44517 21.5998 9.44517C24.3813 9.44517 27.1682 9.44517 29.9497 9.45136C30.1708 9.45136 30.2193 9.37089 30.2193 9.1295C30.2085 8.04633 30.2193 6.96316 30.2193 5.87998C30.2193 5.79333 30.2085 5.70668 30.1977 5.61383C25.7236 5.61383 21.2764 5.61383 16.8076 5.61383C16.8076 6.88888 16.8076 8.13917 16.8076 9.44517Z" fill="#F7F9FC"/>
</mask>
<g mask="url(#mask0_1_1758)">
<path d="M34.1314 0H12.3375V9.45764H34.1314V0Z" fill="url(#paint2_linear_1_1758)"/>
</g>
<path d="M47 16.2413C47 13.6912 45.7871 11.791 43.6309 10.4107C42.3049 9.56275 40.8009 9.40182 39.2592 9.43896C39.022 9.44515 39.0544 9.58751 39.0544 9.73606C39.0544 14.1925 39.0544 18.6428 39.0544 23.0993C39.0544 30.9291 39.0544 38.7527 39.049 46.5825C39.049 47.0343 39.049 47.4862 39.049 47.9751C40.0193 48.0123 40.9411 48.0185 41.8467 47.7709C44.9085 46.9415 46.9946 44.3233 46.9946 41.2347C47.0054 32.9098 47 24.5724 47 16.2413Z" fill="url(#paint3_linear_1_1758)"/>
<path d="M25.977 31.5606C25.977 32.359 25.977 33.1141 25.977 33.8754C25.977 34.7358 25.977 35.5961 25.977 36.4503C25.977 36.964 25.7505 37.2364 25.3085 37.2364C24.0903 37.2426 22.872 37.2426 21.6537 37.2364C21.2495 37.2364 21.0231 36.9455 21.0231 36.4565C21.0231 34.9215 21.0231 33.3865 21.0231 31.8515C21.0231 31.7648 21.0231 31.672 21.0231 31.5606C20.9206 31.5606 20.8452 31.5606 20.7643 31.5606C19.449 31.5606 18.1283 31.5606 16.8131 31.5606C16.2902 31.5606 16.0746 31.3192 16.0746 30.7188C16.0746 29.388 16.0746 28.0573 16.0746 26.7265C16.0746 26.1199 16.2848 25.8785 16.8077 25.8785C18.1176 25.8785 19.4275 25.8785 20.7374 25.8785C20.8236 25.8785 20.9045 25.8785 21.0177 25.8785C21.0177 25.7795 21.0177 25.699 21.0177 25.6186C21.0177 24.0836 21.0177 22.5486 21.0177 21.0136C21.0177 20.4441 21.2387 20.1965 21.7346 20.1965C22.8936 20.1965 24.0525 20.1965 25.2115 20.1965C25.7559 20.1965 25.9662 20.4317 25.9662 21.0693C25.9716 22.5919 25.9662 24.1083 25.9662 25.631C25.9662 25.7052 25.9662 25.7795 25.9662 25.8847C26.0524 25.8847 26.1279 25.8847 26.198 25.8847C27.5348 25.8847 28.8717 25.8847 30.2085 25.8909C30.6991 25.8909 30.9093 26.1385 30.9093 26.7018C30.9093 28.0387 30.9093 29.3756 30.9093 30.7126C30.9093 31.3254 30.7044 31.5606 30.1816 31.5606C28.8501 31.5606 27.5186 31.5606 26.1926 31.5667C26.1387 31.5606 26.074 31.5606 25.977 31.5606Z" fill="url(#paint4_linear_1_1758)"/>
</g>
<defs>
<linearGradient id="paint0_linear_1_1758" x1="7.79009" y1="28.7141" x2="39.0529" y2="28.7141" gradientUnits="userSpaceOnUse">
<stop stop-color="#B0F4FF"/>
<stop offset="1" stop-color="#69DCFC"/>
</linearGradient>
<linearGradient id="paint1_linear_1_1758" x1="-1.10849e-05" y1="28.7202" x2="7.79008" y2="28.7202" gradientUnits="userSpaceOnUse">
<stop stop-color="#6CBCFC"/>
<stop offset="1" stop-color="#458DFC"/>
</linearGradient>
<linearGradient id="paint2_linear_1_1758" x1="12.3352" y1="4.72782" x2="34.1304" y2="4.72782" gradientUnits="userSpaceOnUse">
<stop stop-color="#6CBCFC"/>
<stop offset="1" stop-color="#458DFC"/>
</linearGradient>
<linearGradient id="paint3_linear_1_1758" x1="39.0503" y1="28.7163" x2="47.0004" y2="28.7163" gradientUnits="userSpaceOnUse">
<stop stop-color="#6CBCFC"/>
<stop offset="1" stop-color="#458DFC"/>
</linearGradient>
<linearGradient id="paint4_linear_1_1758" x1="16.0779" y1="28.7226" x2="30.9201" y2="28.7226" gradientUnits="userSpaceOnUse">
<stop stop-color="#6CBCFC"/>
<stop offset="1" stop-color="#458DFC"/>
</linearGradient>
<clipPath id="clip0_1_1758">
<rect width="47" height="48" fill="white"/>
</clipPath>
</defs>
</svg>
