<svg width="35" height="48" viewBox="0 0 35 48" fill="none" xmlns="http://www.w3.org/2000/svg">
<g clip-path="url(#clip0_1_1711)">
<path d="M34.9312 14.9539L34.823 37.4296L34.8049 41.7769C34.7869 45.2312 31.5039 48.0181 27.4633 48.0001L7.27846 47.9099C3.2469 47.8829 -0.0180402 45.0689 -1.90793e-06 41.6055L0.126266 14.7825C0.135286 11.9866 2.29988 9.62355 5.25817 8.83889L5.26719 7.39582V6.65625L29.8624 6.7735L29.8534 8.95614C32.8027 9.77688 34.9402 12.1489 34.9312 14.9539Z" fill="url(#paint0_linear_1_1711)"/>
<path d="M31.6934 1.00113V1.19955L31.6753 3.54453L31.6573 5.84442V6.12401C31.6573 6.55693 31.2965 6.90868 30.8636 6.90868H30.6742L29.4837 6.89966L28.1759 6.89064L26.9853 6.88162L25.6776 6.8726L24.469 6.85457L23.1612 6.84555L21.9707 6.83653L20.6539 6.82751L19.4543 6.81849L18.1466 6.80947L16.956 6.79143L15.6483 6.78241L14.4577 6.77339L13.1409 6.76437L11.9414 6.75536L10.6426 6.74634L9.45209 6.73732L8.14431 6.7283L6.94476 6.71928L5.63698 6.71026L4.43743 6.70124H4.24803C3.81511 6.70124 3.46336 6.34047 3.46336 5.90755V5.89853V5.70011L3.49944 1.06426V0.784667C3.49944 0.351747 3.86021 0 4.30215 0H4.49155L6.99888 0.0180383L9.5062 0.0360767L10.7058 0.0450958L12.0135 0.054115L13.2041 0.0631342L15.7024 0.0901917L17.0102 0.0992108L18.2007 0.10823L19.5085 0.117249L20.699 0.126268L22.0068 0.135287L23.1973 0.144307L24.5051 0.153326L25.6956 0.162345L27.0214 0.180383L28.212 0.189402L29.5197 0.198422L30.7193 0.207441H30.9087C31.3506 0.21646 31.6934 0.568208 31.6934 1.00113Z" fill="url(#paint1_linear_1_1711)"/>
<path d="M31.6934 1.20852L31.6753 3.54448L31.6573 5.84437L30.584 5.83535L29.159 5.82633L27.8512 5.81731H26.4171L25.1094 5.80829L23.6843 5.79927L22.3766 5.79025H20.9425L19.6347 5.78123L18.2007 5.77222L16.9019 5.7632H15.4679L14.1601 5.75418L12.726 5.74516L11.4183 5.73614H9.99324L8.68546 5.72712L7.25141 5.7181L5.94363 5.70908H4.51861L3.46336 5.70006L3.49944 1.06421L6.00677 1.07323L8.73958 1.09127L10.0474 1.10029L11.4814 1.1093H12.7892L15.522 1.12734L16.956 1.13636H18.2638L19.6979 1.14538L20.9966 1.1544L22.4307 1.16342H23.7384L25.1725 1.17244L26.4713 1.18146L27.9053 1.19048H29.2131L30.6471 1.1995L31.6934 1.20852Z" fill="url(#paint2_linear_1_1711)"/>
<path d="M34.9048 19.6993L0.099823 19.5347L0.0268435 34.9665L34.8318 35.1311L34.9048 19.6993Z" fill="#F7F9FC"/>
<path d="M34.9109 19.6992L0.105972 19.5347L0.0928394 22.3126L34.8978 22.4771L34.9109 19.6992Z" fill="#FBFCF7"/>
<path d="M13.6731 25.7394L11.4273 25.7304L11.4363 23.4756L8.34273 23.4666L8.33371 25.7123L6.08794 25.7033L6.0699 28.7879L8.31567 28.7969L8.30665 31.0517L11.4002 31.0607L11.4092 28.8149L13.655 28.8239L13.6731 25.7394Z" fill="url(#paint3_linear_1_1711)"/>
<path d="M28.9335 26.4881L17.8038 26.434C17.5062 26.434 17.2627 26.1904 17.2627 25.8928V25.6403C17.2627 25.3426 17.5062 25.0991 17.8038 25.0991L28.9335 25.1532C29.2311 25.1532 29.4746 25.3968 29.4746 25.6944V25.9469C29.4746 26.2446 29.2311 26.4881 28.9335 26.4881Z" fill="url(#paint4_linear_1_1711)"/>
<path opacity="0.5" d="M28.9245 29.7981L17.7948 29.744C17.4972 29.744 17.2537 29.5005 17.2537 29.2029V28.9503C17.2537 28.6527 17.4972 28.4092 17.7948 28.4092L28.9245 28.4633C29.2221 28.4633 29.4656 28.7068 29.4656 29.0044V29.257C29.4656 29.5546 29.2221 29.7981 28.9245 29.7981Z" fill="url(#paint5_linear_1_1711)"/>
<path opacity="0.08" d="M3.46336 1.00121V1.19963L3.4814 3.54461L3.49944 5.83548V6.11507C3.49944 6.54799 3.86021 6.89974 4.29313 6.89974H4.48253L5.68208 6.89072L6.98986 6.8817L8.18039 6.87268L9.48817 6.86366L10.6787 6.85464L11.9865 6.84563L13.177 6.83661L14.4848 6.82759L15.6843 6.81857L16.9921 6.80955L18.1826 6.80053L19.4904 6.79151L20.681 6.78249L21.9887 6.77347L23.1883 6.76445L24.4961 6.75543L25.6866 6.74641L26.9944 6.73739L28.1849 6.72838L29.4927 6.71936L30.6922 6.71034H30.8816C31.3145 6.71034 31.6663 6.34957 31.6663 5.91665V5.90763V5.70921C17.7136 6.31349 4.24803 0.20752 4.24803 0.20752C3.81511 0.216539 3.46336 0.568286 3.46336 1.00121Z" fill="#1A6FB5"/>
</g>
<defs>
<linearGradient id="paint0_linear_1_1711" x1="-2.09246e-06" y1="6.40011" x2="32.2667" y2="50.9334" gradientUnits="userSpaceOnUse">
<stop stop-color="#6CBCFC"/>
<stop offset="1" stop-color="#458DFC"/>
</linearGradient>
<linearGradient id="paint1_linear_1_1711" x1="-355.725" y1="-22.5493" x2="-15.5882" y2="1.14187" gradientUnits="userSpaceOnUse">
<stop stop-color="#B0F4FF"/>
<stop offset="0.0525488" stop-color="#A9F2FF"/>
<stop offset="0.2879" stop-color="#8DE8FE"/>
<stop offset="0.5247" stop-color="#79E1FD"/>
<stop offset="0.7618" stop-color="#6DDDFC"/>
<stop offset="1" stop-color="#69DCFC"/>
</linearGradient>
<linearGradient id="paint2_linear_1_1711" x1="3.46726" y1="3.45206" x2="31.6945" y2="3.45206" gradientUnits="userSpaceOnUse">
<stop stop-color="#B0F4FF"/>
<stop offset="0.0525488" stop-color="#A9F2FF"/>
<stop offset="0.2879" stop-color="#8DE8FE"/>
<stop offset="0.5247" stop-color="#79E1FD"/>
<stop offset="0.7618" stop-color="#6DDDFC"/>
<stop offset="1" stop-color="#69DCFC"/>
</linearGradient>
<linearGradient id="paint3_linear_1_1711" x1="12.4111" y1="24.3361" x2="7.11387" y2="30.4446" gradientUnits="userSpaceOnUse">
<stop stop-color="#6CBCFC"/>
<stop offset="1" stop-color="#458DFC"/>
</linearGradient>
<linearGradient id="paint4_linear_1_1711" x1="29.582" y1="25.7907" x2="16.3125" y2="25.7907" gradientUnits="userSpaceOnUse">
<stop stop-color="#6CBCFC"/>
<stop offset="1" stop-color="#458DFC"/>
</linearGradient>
<linearGradient id="paint5_linear_1_1711" x1="17.2528" y1="29.1005" x2="29.4658" y2="29.1005" gradientUnits="userSpaceOnUse">
<stop stop-color="#6CBCFC"/>
<stop offset="1" stop-color="#458DFC"/>
</linearGradient>
<clipPath id="clip0_1_1711">
<rect width="34.9312" height="48" fill="white"/>
</clipPath>
</defs>
</svg>
