<svg width="8" height="14" viewBox="0 0 8 14" fill="none" xmlns="http://www.w3.org/2000/svg">
<path d="M5.31372 7.07101L0.36372 2.12101C0.181562 1.93241 0.0807672 1.67981 0.0830456 1.41761C0.085324 1.15541 0.190493 0.904601 0.375901 0.719193C0.561309 0.533785 0.812122 0.428616 1.07432 0.426338C1.33652 0.424059 1.58912 0.524854 1.77772 0.707012L7.43472 6.36401C7.62219 6.55154 7.72751 6.80585 7.72751 7.07101C7.72751 7.33618 7.62219 7.59048 7.43472 7.77801L1.77772 13.435C1.58912 13.6172 1.33652 13.718 1.07432 13.7157C0.812122 13.7134 0.561309 13.6082 0.375901 13.4228C0.190493 13.2374 0.085324 12.9866 0.0830456 12.7244C0.0807672 12.4622 0.181562 12.2096 0.36372 12.021L5.31372 7.07101Z" fill="#21272A"/>
</svg>
