<svg width="136" height="40" viewBox="0 0 136 40" fill="none" xmlns="http://www.w3.org/2000/svg">
<g clip-path="url(#clip0_17_1036)">
<path d="M130.664 0H5.66406C2.90264 0 0.664062 2.23858 0.664062 5V35C0.664062 37.7614 2.90264 40 5.66406 40H130.664C133.425 40 135.664 37.7614 135.664 35V5C135.664 2.23858 133.425 0 130.664 0Z" fill="black"/>
<path d="M130.664 0.8C131.778 0.8 132.846 1.2425 133.634 2.03015C134.422 2.8178 134.864 3.88609 134.864 5V35C134.864 36.1139 134.422 37.1822 133.634 37.9698C132.846 38.7575 131.778 39.2 130.664 39.2H5.66406C4.55015 39.2 3.48187 38.7575 2.69421 37.9698C1.90656 37.1822 1.46406 36.1139 1.46406 35V5C1.46406 3.88609 1.90656 2.8178 2.69421 2.03015C3.48187 1.2425 4.55015 0.8 5.66406 0.8H130.664ZM130.664 0H5.66406C4.33798 0 3.06621 0.526784 2.12853 1.46447C1.19085 2.40215 0.664063 3.67392 0.664062 5V35C0.664063 36.3261 1.19085 37.5979 2.12853 38.5355C3.06621 39.4732 4.33798 40 5.66406 40H130.664C131.99 40 133.262 39.4732 134.2 38.5355C135.137 37.5979 135.664 36.3261 135.664 35V5C135.664 3.67392 135.137 2.40215 134.2 1.46447C133.262 0.526784 131.99 0 130.664 0Z" fill="#A6A6A6"/>
<path d="M45.0398 10.4858H47.1307V13.3869C46.817 13.4933 46.4937 13.5724 46.1609 13.6242C45.8309 13.676 45.4613 13.702 45.0521 13.702C44.4301 13.702 43.905 13.5778 43.4767 13.3296C43.0512 13.0814 42.7279 12.7281 42.507 12.2698C42.286 11.8088 42.1755 11.2619 42.1755 10.629C42.1755 10.0098 42.2969 9.46967 42.5397 9.00866C42.7852 8.54765 43.1385 8.1903 43.5995 7.93661C44.0632 7.68019 44.6197 7.55198 45.2689 7.55198C45.6017 7.55198 45.9168 7.58335 46.2141 7.64609C46.5142 7.70611 46.7924 7.79203 47.0489 7.90388L46.7829 8.50946C46.5619 8.41399 46.3178 8.33215 46.0505 8.26396C45.7859 8.19576 45.5117 8.16166 45.228 8.16166C44.7397 8.16166 44.321 8.26259 43.9718 8.46445C43.6254 8.66632 43.3594 8.95138 43.1739 9.31964C42.9912 9.6879 42.8998 10.1244 42.8998 10.629C42.8998 11.1282 42.9803 11.5633 43.1412 11.9343C43.3021 12.3026 43.5531 12.589 43.8941 12.7936C44.2351 12.9982 44.6743 13.1005 45.2117 13.1005C45.4817 13.1005 45.7136 13.0855 45.9073 13.0554C46.1009 13.0227 46.2769 12.9845 46.4351 12.9409V11.1078H45.0398V10.4858ZM51.9099 13.6201H48.5792V7.63791H51.9099V8.25168H49.2748V10.1871H51.7585V10.7927H49.2748V13.0063H51.9099V13.6201ZM55.0729 13.6201H54.3732V8.25168H52.491V7.63791H56.9469V8.25168H55.0729V13.6201ZM60.028 13.6201V7.63791H60.7237V13.6201H60.028ZM64.2058 13.6201H63.5061V8.25168H61.6238V7.63791H66.0798V8.25168H64.2058V13.6201ZM74.3493 10.6208C74.3493 11.0818 74.2907 11.5019 74.1734 11.8811C74.0561 12.2575 73.8815 12.5822 73.6496 12.855C73.4205 13.125 73.1354 13.3337 72.7945 13.481C72.4535 13.6283 72.0579 13.702 71.6078 13.702C71.1441 13.702 70.739 13.6283 70.3926 13.481C70.0489 13.3337 69.7624 13.1236 69.5333 12.8509C69.3069 12.5781 69.1364 12.2521 69.0218 11.8729C68.91 11.4937 68.8541 11.0737 68.8541 10.6126C68.8541 10.0016 68.955 9.46558 69.1568 9.00457C69.3587 8.54356 69.6642 8.18485 70.0734 7.92843C70.4853 7.67201 71.0009 7.5438 71.6201 7.5438C72.2121 7.5438 72.7099 7.67064 73.1136 7.92434C73.5201 8.17803 73.827 8.53538 74.0343 8.99639C74.2443 9.45467 74.3493 9.99615 74.3493 10.6208ZM69.5865 10.6208C69.5865 11.1282 69.6588 11.5674 69.8034 11.9384C69.9479 12.3094 70.1689 12.5958 70.4662 12.7977C70.7663 12.9995 71.1468 13.1005 71.6078 13.1005C72.0716 13.1005 72.4507 12.9995 72.7454 12.7977C73.0427 12.5958 73.2623 12.3094 73.4041 11.9384C73.546 11.5674 73.6169 11.1282 73.6169 10.6208C73.6169 9.84884 73.4546 9.24599 73.13 8.81226C72.8081 8.3758 72.3048 8.15757 71.6201 8.15757C71.1564 8.15757 70.7745 8.25714 70.4744 8.45627C70.1743 8.6554 69.9507 8.9391 69.8034 9.30736C69.6588 9.6729 69.5865 10.1107 69.5865 10.6208ZM80.3602 13.6201H79.5582L76.297 8.59539H76.2643C76.2725 8.72906 76.282 8.88182 76.2929 9.05367C76.3039 9.2228 76.312 9.4042 76.3175 9.59788C76.3257 9.78883 76.3298 9.98387 76.3298 10.183V13.6201H75.6833V7.63791H76.4812L79.73 12.6463H79.7587C79.7532 12.5508 79.7464 12.4158 79.7382 12.2412C79.73 12.0639 79.7219 11.8743 79.7137 11.6724C79.7082 11.4678 79.7055 11.2782 79.7055 11.1037V7.63791H80.3602V13.6201Z" fill="white"/>
<path d="M45.0398 10.4858V10.3858H44.9398V10.4858H45.0398ZM47.1307 10.4858H47.2307V10.3858H47.1307V10.4858ZM47.1307 13.3869L47.1628 13.4816L47.2307 13.4586V13.3869H47.1307ZM46.1609 13.6242L46.1456 13.5254L46.1454 13.5254L46.1609 13.6242ZM43.4767 13.3296L43.4263 13.416L43.4266 13.4161L43.4767 13.3296ZM42.507 12.2698L42.4168 12.313L42.4169 12.3133L42.507 12.2698ZM42.5397 9.00866L42.4514 8.96166L42.4512 8.96207L42.5397 9.00866ZM43.5995 7.93661L43.6477 8.02422L43.6479 8.02412L43.5995 7.93661ZM46.2141 7.64609L46.1935 7.74394L46.1945 7.74415L46.2141 7.64609ZM47.0489 7.90388L47.1404 7.94409L47.1807 7.8523L47.0888 7.81222L47.0489 7.90388ZM46.7829 8.50946L46.7432 8.60126L46.8345 8.64069L46.8745 8.54967L46.7829 8.50946ZM46.0505 8.26396L46.0255 8.36079L46.0258 8.36085L46.0505 8.26396ZM43.9718 8.46445L43.9218 8.37788L43.9215 8.37805L43.9718 8.46445ZM43.1739 9.31964L43.0846 9.27465L43.0844 9.27518L43.1739 9.31964ZM43.1412 11.9343L43.0495 11.9741L43.0496 11.9743L43.1412 11.9343ZM43.8941 12.7936L43.8426 12.8793L43.8941 12.7936ZM45.9073 13.0554L45.9226 13.1543L45.9239 13.1541L45.9073 13.0554ZM46.4351 12.9409L46.4617 13.0373L46.5351 13.017V12.9409H46.4351ZM46.4351 11.1078H46.5351V11.0078H46.4351V11.1078ZM45.0398 11.1078H44.9398V11.2078H45.0398V11.1078ZM45.0398 10.5858H47.1307V10.3858H45.0398V10.5858ZM47.0307 10.4858V13.3869H47.2307V10.4858H47.0307ZM47.0986 13.2922C46.7904 13.3967 46.4728 13.4744 46.1456 13.5254L46.1763 13.723C46.5147 13.6703 46.8436 13.5899 47.1628 13.4816L47.0986 13.2922ZM46.1454 13.5254C45.8215 13.5763 45.4572 13.602 45.0521 13.602V13.802C45.4653 13.802 45.8403 13.7758 46.1765 13.723L46.1454 13.5254ZM45.0521 13.602C44.4433 13.602 43.9365 13.4805 43.5269 13.2431L43.4266 13.4161C43.8735 13.6752 44.417 13.802 45.0521 13.802V13.602ZM43.5271 13.2432C43.1194 13.0054 42.8097 12.6673 42.597 12.2264L42.4169 12.3133C42.6462 12.7889 42.983 13.1574 43.4263 13.416L43.5271 13.2432ZM42.5971 12.2266C42.384 11.7819 42.2755 11.2504 42.2755 10.629H42.0755C42.0755 11.2734 42.188 11.8357 42.4168 12.313L42.5971 12.2266ZM42.2755 10.629C42.2755 10.023 42.3943 9.49943 42.6282 9.05526L42.4512 8.96207C42.1996 9.43992 42.0755 9.9966 42.0755 10.629H42.2755ZM42.628 9.05567C42.8643 8.61193 43.2036 8.26863 43.6477 8.02422L43.5513 7.849C43.0734 8.11198 42.7061 8.48338 42.4514 8.96166L42.628 9.05567ZM43.6479 8.02412C44.0938 7.77755 44.6329 7.65198 45.2689 7.65198V7.45198C44.6066 7.45198 44.0326 7.58284 43.5511 7.8491L43.6479 8.02412ZM45.2689 7.65198C45.5954 7.65198 45.9036 7.68276 46.1935 7.74394L46.2348 7.54825C45.9301 7.48395 45.608 7.45198 45.2689 7.45198V7.65198ZM46.1945 7.74415C46.4882 7.80289 46.7596 7.8868 47.0089 7.99554L47.0888 7.81222C46.8253 7.69727 46.5402 7.60932 46.2338 7.54804L46.1945 7.74415ZM46.9573 7.86367L46.6913 8.46925L46.8745 8.54967L47.1404 7.94409L46.9573 7.86367ZM46.8226 8.41767C46.5961 8.31982 46.3469 8.23637 46.0752 8.16706L46.0258 8.36085C46.2887 8.42793 46.5278 8.50815 46.7432 8.60126L46.8226 8.41767ZM46.0754 8.16712C45.8024 8.09674 45.5198 8.06166 45.228 8.06166V8.26166C45.5036 8.26166 45.7694 8.29477 46.0255 8.36079L46.0754 8.16712ZM45.228 8.06166C44.7259 8.06166 44.2891 8.16554 43.9218 8.37788L44.0219 8.55103C44.3529 8.35964 44.7536 8.26166 45.228 8.26166V8.06166ZM43.9215 8.37805C43.5578 8.58994 43.2786 8.88962 43.0846 9.27465L43.2632 9.36462C43.4403 9.01313 43.693 8.74269 44.0222 8.55086L43.9215 8.37805ZM43.0844 9.27518C42.8934 9.66005 42.7998 10.1124 42.7998 10.629H42.9998C42.9998 10.1363 43.089 9.71575 43.2635 9.36409L43.0844 9.27518ZM42.7998 10.629C42.7998 11.1388 42.882 11.588 43.0495 11.9741L43.2329 11.8945C43.0786 11.5386 42.9998 11.1176 42.9998 10.629H42.7998ZM43.0496 11.9743C43.2187 12.3614 43.4836 12.6639 43.8426 12.8793L43.9455 12.7078C43.6226 12.514 43.3856 12.2437 43.2328 11.8943L43.0496 11.9743ZM43.8426 12.8793C44.2037 13.096 44.6623 13.2005 45.2117 13.2005V13.0005C44.6862 13.0005 44.2664 12.9004 43.9455 12.7078L43.8426 12.8793ZM45.2117 13.2005C45.4851 13.2005 45.7223 13.1853 45.9226 13.1543L45.8919 12.9566C45.7048 12.9856 45.4783 13.0005 45.2117 13.0005V13.2005ZM45.9239 13.1541C46.1203 13.1209 46.2996 13.082 46.4617 13.0373L46.4085 12.8445C46.2541 12.8871 46.0816 12.9246 45.8906 12.9568L45.9239 13.1541ZM46.5351 12.9409V11.1078H46.3351V12.9409H46.5351ZM46.4351 11.0078H45.0398V11.2078H46.4351V11.0078ZM45.1398 11.1078V10.4858H44.9398V11.1078H45.1398ZM51.9099 13.6201V13.7201H52.0099V13.6201H51.9099ZM48.5792 13.6201H48.4792V13.7201H48.5792V13.6201ZM48.5792 7.63791V7.53791H48.4792V7.63791H48.5792ZM51.9099 7.63791H52.0099V7.53791H51.9099V7.63791ZM51.9099 8.25168V8.35168H52.0099V8.25168H51.9099ZM49.2748 8.25168V8.15168H49.1748V8.25168H49.2748ZM49.2748 10.1871H49.1748V10.2871H49.2748V10.1871ZM51.7585 10.1871H51.8585V10.0871H51.7585V10.1871ZM51.7585 10.7927V10.8927H51.8585V10.7927H51.7585ZM49.2748 10.7927V10.6927H49.1748V10.7927H49.2748ZM49.2748 13.0063H49.1748V13.1063H49.2748V13.0063ZM51.9099 13.0063H52.0099V12.9063H51.9099V13.0063ZM51.9099 13.5201H48.5792V13.7201H51.9099V13.5201ZM48.6792 13.6201V7.63791H48.4792V13.6201H48.6792ZM48.5792 7.73791H51.9099V7.53791H48.5792V7.73791ZM51.8099 7.63791V8.25168H52.0099V7.63791H51.8099ZM51.9099 8.15168H49.2748V8.35168H51.9099V8.15168ZM49.1748 8.25168V10.1871H49.3748V8.25168H49.1748ZM49.2748 10.2871H51.7585V10.0871H49.2748V10.2871ZM51.6585 10.1871V10.7927H51.8585V10.1871H51.6585ZM51.7585 10.6927H49.2748V10.8927H51.7585V10.6927ZM49.1748 10.7927V13.0063H49.3748V10.7927H49.1748ZM49.2748 13.1063H51.9099V12.9063H49.2748V13.1063ZM51.8099 13.0063V13.6201H52.0099V13.0063H51.8099ZM55.0729 13.6201V13.7201H55.1729V13.6201H55.0729ZM54.3732 13.6201H54.2732V13.7201H54.3732V13.6201ZM54.3732 8.25168H54.4732V8.15168H54.3732V8.25168ZM52.491 8.25168H52.391V8.35168H52.491V8.25168ZM52.491 7.63791V7.53791H52.391V7.63791H52.491ZM56.9469 7.63791H57.0469V7.53791H56.9469V7.63791ZM56.9469 8.25168V8.35168H57.0469V8.25168H56.9469ZM55.0729 8.25168V8.15168H54.9729V8.25168H55.0729ZM55.0729 13.5201H54.3732V13.7201H55.0729V13.5201ZM54.4732 13.6201V8.25168H54.2732V13.6201H54.4732ZM54.3732 8.15168H52.491V8.35168H54.3732V8.15168ZM52.591 8.25168V7.63791H52.391V8.25168H52.591ZM52.491 7.73791H56.9469V7.53791H52.491V7.73791ZM56.8469 7.63791V8.25168H57.0469V7.63791H56.8469ZM56.9469 8.15168H55.0729V8.35168H56.9469V8.15168ZM54.9729 8.25168V13.6201H55.1729V8.25168H54.9729ZM60.028 13.6201H59.928V13.7201H60.028V13.6201ZM60.028 7.63791V7.53791H59.928V7.63791H60.028ZM60.7237 7.63791H60.8237V7.53791H60.7237V7.63791ZM60.7237 13.6201V13.7201H60.8237V13.6201H60.7237ZM60.128 13.6201V7.63791H59.928V13.6201H60.128ZM60.028 7.73791H60.7237V7.53791H60.028V7.73791ZM60.6237 7.63791V13.6201H60.8237V7.63791H60.6237ZM60.7237 13.5201H60.028V13.7201H60.7237V13.5201ZM64.2058 13.6201V13.7201H64.3058V13.6201H64.2058ZM63.5061 13.6201H63.4061V13.7201H63.5061V13.6201ZM63.5061 8.25168H63.6061V8.15168H63.5061V8.25168ZM61.6238 8.25168H61.5238V8.35168H61.6238V8.25168ZM61.6238 7.63791V7.53791H61.5238V7.63791H61.6238ZM66.0798 7.63791H66.1798V7.53791H66.0798V7.63791ZM66.0798 8.25168V8.35168H66.1798V8.25168H66.0798ZM64.2058 8.25168V8.15168H64.1058V8.25168H64.2058ZM64.2058 13.5201H63.5061V13.7201H64.2058V13.5201ZM63.6061 13.6201V8.25168H63.4061V13.6201H63.6061ZM63.5061 8.15168H61.6238V8.35168H63.5061V8.15168ZM61.7238 8.25168V7.63791H61.5238V8.25168H61.7238ZM61.6238 7.73791H66.0798V7.53791H61.6238V7.73791ZM65.9798 7.63791V8.25168H66.1798V7.63791H65.9798ZM66.0798 8.15168H64.2058V8.35168H66.0798V8.15168ZM64.1058 8.25168V13.6201H64.3058V8.25168H64.1058ZM74.1734 11.8811L74.2689 11.9109L74.2689 11.9107L74.1734 11.8811ZM73.6496 12.855L73.5734 12.7902L73.5734 12.7903L73.6496 12.855ZM72.7945 13.481L72.8341 13.5728L72.7945 13.481ZM70.3926 13.481L70.3532 13.5729L70.3534 13.573L70.3926 13.481ZM69.5333 12.8509L69.4563 12.9147L69.4567 12.9152L69.5333 12.8509ZM69.0218 11.8729L68.9259 11.9012L68.9261 11.9018L69.0218 11.8729ZM70.0734 7.92843L70.0206 7.84353L70.0203 7.84369L70.0734 7.92843ZM73.1136 7.92434L73.0604 8.00901L73.0607 8.00917L73.1136 7.92434ZM74.0343 8.99639L73.9431 9.0374L73.9434 9.03805L74.0343 8.99639ZM70.4662 12.7977L70.4101 12.8804L70.4104 12.8806L70.4662 12.7977ZM72.7454 12.7977L72.6892 12.7149L72.6888 12.7152L72.7454 12.7977ZM73.13 8.81226L73.0495 8.87161L73.0499 8.87218L73.13 8.81226ZM70.4744 8.45627L70.4191 8.37295L70.4744 8.45627ZM69.8034 9.30736L69.7105 9.27022L69.7104 9.27058L69.8034 9.30736ZM74.2493 10.6208C74.2493 11.0734 74.1918 11.4833 74.0779 11.8516L74.2689 11.9107C74.3896 11.5205 74.4493 11.0903 74.4493 10.6208H74.2493ZM74.0779 11.8514C73.9642 12.2163 73.7958 12.5287 73.5734 12.7902L73.7258 12.9197C73.9673 12.6357 74.148 12.2988 74.2689 11.9109L74.0779 11.8514ZM73.5734 12.7903C73.3547 13.048 73.0824 13.2477 72.7548 13.3892L72.8341 13.5728C73.1885 13.4197 73.4863 13.202 73.7259 12.9196L73.5734 12.7903ZM72.7548 13.3892C72.4287 13.5301 72.0471 13.602 71.6078 13.602V13.802C72.0687 13.802 72.4783 13.7265 72.8341 13.5728L72.7548 13.3892ZM71.6078 13.602C71.1545 13.602 70.7633 13.5299 70.4317 13.389L70.3534 13.573C70.7148 13.7267 71.1337 13.802 71.6078 13.802V13.602ZM70.432 13.3891C70.1019 13.2476 69.8284 13.0467 69.6099 12.7865L69.4567 12.9152C69.6964 13.2005 69.9958 13.4198 70.3532 13.5729L70.432 13.3891ZM69.6102 12.787C69.3933 12.5256 69.2287 12.2119 69.1175 11.844L68.9261 11.9018C69.0441 12.2923 69.2205 12.6305 69.4563 12.9147L69.6102 12.787ZM69.1177 11.8446C69.009 11.476 68.9541 11.0656 68.9541 10.6126H68.7541C68.7541 11.0817 68.8109 11.5115 68.9259 11.9012L69.1177 11.8446ZM68.9541 10.6126C68.9541 10.0125 69.0532 9.49064 69.2484 9.04468L69.0652 8.96446C68.8568 9.44052 68.7541 9.99069 68.7541 10.6126H68.9541ZM69.2484 9.04468C69.4426 8.60125 69.7351 8.25845 70.1265 8.01316L70.0203 7.84369C69.5934 8.11125 69.2748 8.48587 69.0652 8.96446L69.2484 9.04468ZM70.1263 8.01332C70.5185 7.76916 71.0145 7.6438 71.6201 7.6438V7.4438C70.9873 7.4438 70.4522 7.57485 70.0206 7.84353L70.1263 8.01332ZM71.6201 7.6438C72.1978 7.6438 72.6761 7.7675 73.0604 8.00901L73.1668 7.83966C72.7437 7.57379 72.2263 7.4438 71.6201 7.4438V7.6438ZM73.0607 8.00917C73.4494 8.25177 73.7434 8.59342 73.9431 9.0374L74.1255 8.95537C73.9105 8.47734 73.5908 8.10428 73.1666 7.8395L73.0607 8.00917ZM73.9434 9.03805C74.1462 9.48052 74.2493 10.0072 74.2493 10.6208H74.4493C74.4493 9.98512 74.3425 9.42881 74.1252 8.95472L73.9434 9.03805ZM69.4865 10.6208C69.4865 11.1374 69.56 11.5894 69.7102 11.9747L69.8965 11.9021C69.7575 11.5454 69.6865 11.1191 69.6865 10.6208H69.4865ZM69.7102 11.9747C69.8613 12.3624 70.0942 12.666 70.4101 12.8804L70.5224 12.7149C70.2436 12.5257 70.0346 12.2563 69.8965 11.9021L69.7102 11.9747ZM70.4104 12.8806C70.731 13.0963 71.1324 13.2005 71.6078 13.2005V13.0005C71.1613 13.0005 70.8016 12.9028 70.522 12.7147L70.4104 12.8806ZM71.6078 13.2005C72.0858 13.2005 72.4863 13.0964 72.8019 12.8802L72.6888 12.7152C72.4152 12.9027 72.0574 13.0005 71.6078 13.0005V13.2005ZM72.8015 12.8804C73.1176 12.6658 73.3492 12.3621 73.4975 11.9741L73.3107 11.9027C73.1754 12.2567 72.9678 12.5258 72.6892 12.7149L72.8015 12.8804ZM73.4975 11.9741C73.6448 11.589 73.7169 11.1372 73.7169 10.6208H73.5169C73.5169 11.1192 73.4472 11.5458 73.3107 11.9027L73.4975 11.9741ZM73.7169 10.6208C73.7169 9.83614 73.5521 9.20934 73.21 8.75234L73.0499 8.87218C73.3571 9.28263 73.5169 9.86155 73.5169 10.6208H73.7169ZM73.2105 8.7529C72.8648 8.28426 72.3273 8.05757 71.6201 8.05757V8.25757C72.2823 8.25757 72.7513 8.46734 73.0495 8.87161L73.2105 8.7529ZM71.6201 8.05757C71.1423 8.05757 70.7397 8.1602 70.4191 8.37295L70.5297 8.53959C70.8093 8.35407 71.1704 8.25757 71.6201 8.25757V8.05757ZM70.4191 8.37295C70.1004 8.58444 69.8645 8.88511 69.7105 9.27022L69.8962 9.3445C70.0368 8.99309 70.2483 8.72637 70.5297 8.53959L70.4191 8.37295ZM69.7104 9.27058C69.56 9.65074 69.4865 10.1017 69.4865 10.6208H69.6865C69.6865 10.1197 69.7575 9.69505 69.8963 9.34414L69.7104 9.27058ZM80.3602 13.6201V13.7201H80.4602V13.6201H80.3602ZM79.5582 13.6201L79.4743 13.6746L79.5039 13.7201H79.5582V13.6201ZM76.297 8.59539L76.3809 8.54095L76.3513 8.49539H76.297V8.59539ZM76.2643 8.59539V8.49539H76.158L76.1645 8.6015L76.2643 8.59539ZM76.2929 9.05367L76.1931 9.06001L76.1931 9.06011L76.2929 9.05367ZM76.3175 9.59788L76.2175 9.6007L76.2176 9.60216L76.3175 9.59788ZM76.3298 13.6201V13.7201H76.4298V13.6201H76.3298ZM75.6833 13.6201H75.5833V13.7201H75.6833V13.6201ZM75.6833 7.63791V7.53791H75.5833V7.63791H75.6833ZM76.4812 7.63791L76.5651 7.58349L76.5355 7.53791H76.4812V7.63791ZM79.73 12.6463L79.6462 12.7007L79.6757 12.7463H79.73V12.6463ZM79.7587 12.6463V12.7463H79.8646L79.8585 12.6406L79.7587 12.6463ZM79.7382 12.2412L79.6383 12.2458L79.6383 12.2459L79.7382 12.2412ZM79.7137 11.6724L79.6137 11.6751L79.6138 11.6765L79.7137 11.6724ZM79.7055 7.63791V7.53791H79.6055V7.63791H79.7055ZM80.3602 7.63791H80.4602V7.53791H80.3602V7.63791ZM80.3602 13.5201H79.5582V13.7201H80.3602V13.5201ZM79.6421 13.5657L76.3809 8.54095L76.2131 8.64983L79.4743 13.6746L79.6421 13.5657ZM76.297 8.49539H76.2643V8.69539H76.297V8.49539ZM76.1645 8.6015C76.1727 8.73526 76.1822 8.8881 76.1931 9.06001L76.3927 9.04734C76.3818 8.87554 76.3723 8.72285 76.3641 8.58928L76.1645 8.6015ZM76.1931 9.06011C76.204 9.22788 76.2121 9.40806 76.2175 9.6007L76.4175 9.59507C76.412 9.40035 76.4037 9.21772 76.3927 9.04723L76.1931 9.06011ZM76.2176 9.60216C76.2257 9.79163 76.2298 9.98524 76.2298 10.183H76.4298C76.4298 9.98251 76.4256 9.78603 76.4174 9.5936L76.2176 9.60216ZM76.2298 10.183V13.6201H76.4298V10.183H76.2298ZM76.3298 13.5201H75.6833V13.7201H76.3298V13.5201ZM75.7833 13.6201V7.63791H75.5833V13.6201H75.7833ZM75.6833 7.73791H76.4812V7.53791H75.6833V7.73791ZM76.3973 7.69233L79.6462 12.7007L79.8139 12.5918L76.5651 7.58349L76.3973 7.69233ZM79.73 12.7463H79.7587V12.5463H79.73V12.7463ZM79.8585 12.6406C79.8531 12.5456 79.8463 12.411 79.8381 12.2365L79.6383 12.2459C79.6465 12.4206 79.6534 12.556 79.6589 12.652L79.8585 12.6406ZM79.8381 12.2366C79.83 12.0595 79.8218 11.8701 79.8136 11.6684L79.6138 11.6765C79.622 11.8785 79.6301 12.0683 79.6383 12.2458L79.8381 12.2366ZM79.8136 11.6698C79.8082 11.4659 79.8055 11.2772 79.8055 11.1037H79.6055C79.6055 11.2793 79.6082 11.4698 79.6137 11.6751L79.8136 11.6698ZM79.8055 11.1037V7.63791H79.6055V11.1037H79.8055ZM79.7055 7.73791H80.3602V7.53791H79.7055V7.73791ZM80.2602 7.63791V13.6201H80.4602V7.63791H80.2602Z" fill="white"/>
<path d="M68.804 21.7499C67.9615 21.7519 67.1385 22.0037 66.439 22.4734C65.7396 22.9432 65.1951 23.6098 64.8745 24.3889C64.5539 25.1681 64.4716 26.0248 64.6379 26.8508C64.8042 27.6768 65.2117 28.4349 65.8089 29.0293C66.406 29.6236 67.166 30.0276 67.9928 30.19C68.8195 30.3524 69.6759 30.2661 70.4535 29.9418C71.2312 29.6175 71.8952 29.07 72.3617 28.3683C72.8281 27.6667 73.076 26.8425 73.074 25.9999C73.0822 25.4379 72.9772 24.8799 72.7652 24.3593C72.5533 23.8386 72.2387 23.366 71.8403 22.9694C71.4419 22.5729 70.9678 22.2606 70.4461 22.051C69.9245 21.8415 69.3661 21.7391 68.804 21.7499ZM68.804 28.5799C68.2876 28.616 67.7723 28.496 67.325 28.2353C66.8777 27.9747 66.5192 27.5855 66.2961 27.1184C66.0729 26.6512 65.9954 26.1278 66.0737 25.6161C66.152 25.1043 66.3824 24.628 66.735 24.249C67.0876 23.8699 67.5461 23.6057 68.0508 23.4907C68.5556 23.3757 69.0832 23.4152 69.5652 23.604C70.0472 23.7929 70.4613 24.1223 70.7535 24.5496C71.0458 24.9769 71.2028 25.4822 71.204 25.9999C71.2201 26.3279 71.1704 26.6559 71.0578 26.9643C70.9451 27.2728 70.7719 27.5556 70.5482 27.7961C70.3245 28.0366 70.0549 28.2298 69.7554 28.3644C69.4558 28.499 69.1324 28.5723 68.804 28.5799ZM59.484 21.7499C58.6415 21.7519 57.8185 22.0037 57.119 22.4734C56.4196 22.9432 55.8751 23.6098 55.5545 24.3889C55.2339 25.1681 55.1516 26.0248 55.3179 26.8508C55.4842 27.6768 55.8917 28.4349 56.4889 29.0293C57.086 29.6236 57.846 30.0276 58.6728 30.19C59.4995 30.3524 60.3559 30.2661 61.1335 29.9418C61.9112 29.6175 62.5752 29.07 63.0417 28.3683C63.5081 27.6667 63.756 26.8425 63.754 25.9999C63.7622 25.4379 63.6572 24.8799 63.4452 24.3593C63.2333 23.8386 62.9187 23.366 62.5203 22.9694C62.1219 22.5729 61.6478 22.2606 61.1261 22.051C60.6045 21.8415 60.0461 21.7391 59.484 21.7499ZM59.484 28.5799C58.9676 28.616 58.4523 28.496 58.005 28.2353C57.5577 27.9747 57.1992 27.5855 56.9761 27.1184C56.7529 26.6512 56.6754 26.1278 56.7537 25.6161C56.832 25.1043 57.0624 24.628 57.415 24.249C57.7676 23.8699 58.2261 23.6057 58.7308 23.4907C59.2356 23.3757 59.7632 23.4152 60.2452 23.604C60.7272 23.7929 61.1413 24.1223 61.4335 24.5496C61.7258 24.9769 61.8828 25.4822 61.884 25.9999C61.9001 26.3279 61.8504 26.6559 61.7378 26.9643C61.6251 27.2728 61.4519 27.5556 61.2282 27.7961C61.0045 28.0366 60.7349 28.2298 60.4354 28.3644C60.1358 28.499 59.8124 28.5723 59.484 28.5799ZM48.404 23.0599V24.8599H52.724C52.6563 25.7077 52.3039 26.5077 51.724 27.1299C51.2907 27.5714 50.7695 27.9171 50.1941 28.1444C49.6188 28.3718 49.0021 28.4759 48.384 28.4499C47.111 28.4499 45.8901 27.9442 44.9899 27.044C44.0898 26.1439 43.584 24.923 43.584 23.6499C43.584 22.3769 44.0898 21.156 44.9899 20.2558C45.8901 19.3556 47.111 18.8499 48.384 18.8499C49.6045 18.8318 50.7829 19.2952 51.664 20.1399L52.934 18.8699C52.338 18.2804 51.6304 17.8158 50.8525 17.5033C50.0746 17.1908 49.2422 17.0366 48.404 17.0499C47.515 17.0153 46.6282 17.1605 45.7967 17.4769C44.9651 17.7932 44.206 18.2742 43.5648 18.8909C42.9236 19.5077 42.4135 20.2475 42.065 21.0661C41.7166 21.8847 41.537 22.7652 41.537 23.6549C41.537 24.5446 41.7166 25.4251 42.065 26.2437C42.4135 27.0623 42.9236 27.8022 43.5648 28.4189C44.206 29.0357 44.9651 29.5166 45.7967 29.833C46.6282 30.1493 47.515 30.2945 48.404 30.2599C49.2595 30.2941 50.1124 30.1469 50.9069 29.8281C51.7015 29.5092 52.4195 29.0259 53.014 28.4099C54.0642 27.2563 54.6237 25.7391 54.574 24.1799C54.5776 23.8046 54.5475 23.4298 54.484 23.0599H48.404ZM93.714 24.4599C93.4532 23.6927 92.9656 23.0227 92.3155 22.5388C91.6655 22.0548 90.8839 21.7797 90.074 21.7499C89.527 21.7489 88.9856 21.86 88.4833 22.0765C87.9809 22.2929 87.5283 22.6101 87.1534 23.0085C86.7785 23.4068 86.4893 23.8778 86.3036 24.3923C86.118 24.9068 86.0399 25.454 86.074 25.9999C86.0655 26.9128 86.3525 27.8039 86.8922 28.5402C87.4318 29.2765 88.1952 29.8184 89.0683 30.0851C89.9414 30.3517 90.8773 30.3288 91.7363 30.0196C92.5952 29.7105 93.3311 29.1318 93.834 28.3699L92.384 27.3699C92.1679 27.7302 91.8613 28.0277 91.4947 28.2329C91.1281 28.4382 90.7142 28.544 90.294 28.5399C89.8606 28.5578 89.4319 28.4442 89.0643 28.214C88.6966 27.9837 88.4072 27.6477 88.234 27.2499L93.924 24.8999L93.714 24.4599ZM87.914 25.8799C87.8938 25.5693 87.9357 25.2578 88.0373 24.9635C88.139 24.6693 88.2983 24.3983 88.5059 24.1664C88.7136 23.9346 88.9655 23.7464 89.2467 23.6131C89.528 23.4798 89.8331 23.4039 90.144 23.3899C90.4662 23.3703 90.7871 23.4461 91.0664 23.608C91.3456 23.7699 91.571 24.0106 91.714 24.2999L87.914 25.8799ZM83.294 29.9999H85.164V17.4999H83.294V29.9999ZM80.234 22.6999H80.164C79.8847 22.3818 79.5399 22.1277 79.1533 21.9551C78.7667 21.7825 78.3474 21.6955 77.924 21.6999C76.8312 21.7529 75.8007 22.2243 75.046 23.0165C74.2913 23.8087 73.8704 24.8608 73.8704 25.9549C73.8704 27.049 74.2913 28.1012 75.046 28.8933C75.8007 29.6855 76.8312 30.1569 77.924 30.2099C78.348 30.2184 78.7686 30.1332 79.1558 29.9603C79.543 29.7875 79.8873 29.5312 80.164 29.2099H80.234V29.8199C80.234 31.4499 79.364 32.3199 77.964 32.3199C77.4964 32.3096 77.0423 32.1606 76.6595 31.8918C76.2767 31.6229 75.9824 31.2464 75.814 30.8099L74.194 31.4799C74.4935 32.2322 75.0143 32.8758 75.6874 33.3258C76.3606 33.7757 77.1544 34.0108 77.964 33.9999C80.154 33.9999 81.964 32.7099 81.964 29.5699V21.9999H80.234V22.6999ZM78.084 28.5799C77.4288 28.5391 76.8139 28.25 76.3643 27.7716C75.9148 27.2932 75.6646 26.6614 75.6646 26.0049C75.6646 25.3485 75.9148 24.7167 76.3643 24.2383C76.8139 23.7598 77.4288 23.4708 78.084 23.4299C78.4043 23.4437 78.7185 23.5218 79.0079 23.6596C79.2973 23.7973 79.5561 23.9918 79.7688 24.2316C79.9816 24.4714 80.1439 24.7515 80.2461 25.0553C80.3484 25.3591 80.3885 25.6803 80.364 25.9999C80.3913 26.3206 80.3533 26.6435 80.2522 26.9491C80.1511 27.2546 79.9891 27.5365 79.776 27.7777C79.5629 28.0189 79.303 28.2143 79.0122 28.3522C78.7214 28.4901 78.4057 28.5676 78.084 28.5799ZM102.474 17.4999H97.994V29.9999H99.864V25.2599H102.474C103.007 25.2982 103.542 25.2263 104.046 25.0487C104.55 24.871 105.012 24.5915 105.403 24.2274C105.794 23.8634 106.106 23.4227 106.319 22.9328C106.533 22.4428 106.643 21.9142 106.643 21.3799C106.643 20.8456 106.533 20.317 106.319 19.8271C106.106 19.3372 105.794 18.8965 105.403 18.5324C105.012 18.1684 104.55 17.8888 104.046 17.7112C103.542 17.5336 103.007 17.4616 102.474 17.4999ZM102.474 23.4999H99.864V19.2399H102.514C102.795 19.2399 103.073 19.2953 103.333 19.4028C103.593 19.5104 103.829 19.668 104.027 19.8667C104.226 20.0654 104.384 20.3013 104.491 20.561C104.599 20.8206 104.654 21.0989 104.654 21.3799C104.654 21.661 104.599 21.9392 104.491 22.1989C104.384 22.4585 104.226 22.6944 104.027 22.8931C103.829 23.0918 103.593 23.2495 103.333 23.357C103.073 23.4646 102.795 23.5199 102.514 23.5199L102.474 23.4999ZM114.014 21.7099C113.333 21.6679 112.655 21.8265 112.063 22.1659C111.471 22.5054 110.992 23.0109 110.684 23.6199L112.334 24.3099C112.501 24.0093 112.751 23.7634 113.054 23.602C113.358 23.4405 113.702 23.3703 114.044 23.3999C114.281 23.3722 114.522 23.392 114.752 23.4582C114.981 23.5245 115.195 23.6358 115.382 23.7856C115.568 23.9355 115.722 24.1209 115.836 24.3311C115.95 24.5413 116.02 24.7721 116.044 25.0099V25.1299C115.443 24.8138 114.773 24.6491 114.094 24.6499C112.314 24.6499 110.494 25.6499 110.494 27.4699C110.512 27.8568 110.607 28.2361 110.774 28.5855C110.941 28.9348 111.177 29.247 111.467 29.5035C111.757 29.7601 112.095 29.9557 112.463 30.0787C112.83 30.2018 113.218 30.2498 113.604 30.2199C114.073 30.2459 114.541 30.1466 114.959 29.9322C115.377 29.7178 115.731 29.3961 115.984 28.9999H116.044V29.9999H117.844V25.1899C117.844 22.9999 116.184 21.7299 114.054 21.7299L114.014 21.7099ZM113.784 28.5599C113.174 28.5599 112.324 28.2499 112.324 27.4999C112.324 26.4999 113.384 26.1599 114.324 26.1599C114.918 26.1453 115.505 26.2903 116.024 26.5799C115.961 27.123 115.704 27.6249 115.299 27.9926C114.895 28.3604 114.371 28.569 113.824 28.5799L113.784 28.5599ZM124.404 21.9999L122.264 27.4199H122.204L119.984 21.9999H117.984L121.314 29.5799L119.414 33.7899H121.364L126.484 21.9999H124.404ZM107.604 29.9999H109.464V17.4999H107.604V29.9999Z" fill="white"/>
<path d="M21.3841 19.4199L10.7341 30.7199C10.8504 31.1473 11.0634 31.5423 11.3567 31.8742C11.65 32.2062 12.0156 32.4663 12.4254 32.6345C12.8352 32.8026 13.2782 32.8744 13.7201 32.8441C14.162 32.8138 14.591 32.6824 14.9741 32.4599L26.9741 25.5399L21.3841 19.4199Z" fill="#EA4335"/>
<path d="M32.1541 17.5L26.9741 14.5L21.1541 19.69L26.9941 25.54L32.1441 22.54C32.6019 22.2948 32.9845 21.93 33.2513 21.4845C33.5182 21.0389 33.6591 20.5293 33.6591 20.01C33.6591 19.4907 33.5182 18.9811 33.2513 18.5355C32.9845 18.09 32.6019 17.7252 32.1441 17.48L32.1541 17.5Z" fill="#FBBC04"/>
<path d="M10.7341 9.28027C10.6812 9.51648 10.6577 9.75831 10.6641 10.0003V30.0003C10.6658 30.2502 10.6994 30.4989 10.7641 30.7403L21.7641 19.7403L10.7341 9.28027Z" fill="#4285F4"/>
<path d="M21.464 19.9996L26.974 14.4896L14.974 7.54965C14.5232 7.28165 14.0085 7.14002 13.484 7.13965C12.8514 7.14146 12.2368 7.35082 11.7346 7.73558C11.2325 8.12035 10.8704 8.65927 10.704 9.26965L21.464 19.9996Z" fill="#34A853"/>
</g>
<defs>
<clipPath id="clip0_17_1036">
<rect width="135" height="40" fill="white" transform="translate(0.664062)"/>
</clipPath>
</defs>
</svg>
