<svg width="19" height="19" viewBox="0 0 19 19" fill="none" xmlns="http://www.w3.org/2000/svg">
<path d="M8.61964 14.5C9.40758 14.5 10.1878 14.3448 10.9157 14.0433C11.6437 13.7418 12.3051 13.2998 12.8623 12.7427C13.4194 12.1855 13.8614 11.5241 14.1629 10.7961C14.4644 10.0682 14.6196 9.28795 14.6196 8.50002C14.6196 7.71208 14.4644 6.93187 14.1629 6.20391C13.8614 5.47596 13.4194 4.81453 12.8623 4.25737C12.3051 3.70022 11.6437 3.25827 10.9157 2.95674C10.1878 2.65521 9.40758 2.50002 8.61964 2.50002C7.02835 2.50002 5.50222 3.13216 4.377 4.25737C3.25178 5.38259 2.61964 6.90872 2.61964 8.50002C2.61964 10.0913 3.25178 11.6174 4.377 12.7427C5.50222 13.8679 7.02835 14.5 8.61964 14.5ZM14.9396 13.406L18.5196 16.986C18.6151 17.0783 18.6912 17.1887 18.7435 17.3108C18.7958 17.4328 18.8233 17.564 18.8244 17.6968C18.8254 17.8296 18.8 17.9613 18.7497 18.0841C18.6993 18.207 18.625 18.3186 18.531 18.4124C18.4371 18.5062 18.3254 18.5804 18.2024 18.6306C18.0795 18.6808 17.9478 18.706 17.815 18.7048C17.6822 18.7035 17.551 18.6758 17.4291 18.6233C17.3071 18.5708 17.1968 18.4946 17.1046 18.399L13.5246 14.819C11.9171 16.0669 9.89444 16.6552 7.8684 16.4642C5.84236 16.2732 3.96525 15.3173 2.61919 13.7911C1.27314 12.2648 0.559329 10.283 0.62307 8.24894C0.686811 6.21492 1.52331 4.28164 2.96229 2.84266C4.40127 1.40368 6.33455 0.567182 8.36857 0.503441C10.4026 0.4397 12.3845 1.15351 13.9107 2.49957C15.437 3.84562 16.3929 5.72273 16.5838 7.74877C16.7748 9.77481 16.1865 11.7975 14.9386 13.405L14.9396 13.406Z" fill="#697077"/>
</svg>
