<svg width="56" height="56" viewBox="0 0 56 56" fill="none" xmlns="http://www.w3.org/2000/svg">
<g filter="url(#filter0_d_3602_1702)">
<rect x="4" width="48" height="48" rx="24" fill="#F2F4F8" shape-rendering="crispEdges"/>
<path d="M24.534 24.07C24.6569 24.0175 24.7892 23.9903 24.9228 23.9898C25.0565 23.9893 25.1889 24.0156 25.3122 24.0672C25.4355 24.1188 25.5473 24.1945 25.6408 24.29C25.7344 24.3855 25.8078 24.4988 25.8568 24.6231C25.9058 24.7475 25.9294 24.8804 25.9262 25.014C25.9229 25.1477 25.8929 25.2793 25.8379 25.4011C25.7829 25.523 25.7041 25.6325 25.606 25.7234C25.508 25.8142 25.3927 25.8845 25.267 25.93C24.5985 26.1934 24.0248 26.6519 23.6205 27.2458C23.2162 27.8397 23 28.5415 23 29.26V31C23 31.2652 23.1054 31.5196 23.2929 31.7071C23.4804 31.8946 23.7348 32 24 32H32C32.2652 32 32.5196 31.8946 32.7071 31.7071C32.8946 31.5196 33 31.2652 33 31V29.353C33.0001 28.6115 32.7749 27.8874 32.3541 27.2768C31.9334 26.6662 31.337 26.1979 30.644 25.934C30.5175 25.8901 30.4012 25.8213 30.3018 25.7316C30.2024 25.6419 30.1221 25.5332 30.0655 25.4119C30.009 25.2905 29.9773 25.1591 29.9725 25.0253C29.9677 24.8916 29.9897 24.7582 30.0374 24.6331C30.0851 24.508 30.1574 24.3938 30.25 24.2972C30.3427 24.2006 30.4538 24.1235 30.5767 24.0706C30.6997 24.0177 30.832 23.9901 30.9659 23.9893C31.0998 23.9885 31.2324 24.0146 31.356 24.066C32.4276 24.4742 33.3499 25.1983 34.0006 26.1425C34.6514 27.0867 34.9999 28.2063 35 29.353V31C35 31.7956 34.6839 32.5587 34.1213 33.1213C33.5587 33.6839 32.7956 34 32 34H24C23.2044 34 22.4413 33.6839 21.8787 33.1213C21.3161 32.5587 21 31.7956 21 31V29.26C21.0001 28.1402 21.3373 27.0463 21.9676 26.1206C22.5978 25.195 23.4921 24.4805 24.534 24.07ZM28 14C29.0609 14 30.0783 14.4214 30.8284 15.1716C31.5786 15.9217 32 16.9391 32 18V20C32 21.0609 31.5786 22.0783 30.8284 22.8284C30.0783 23.5786 29.0609 24 28 24C26.9391 24 25.9217 23.5786 25.1716 22.8284C24.4214 22.0783 24 21.0609 24 20V18C24 16.9391 24.4214 15.9217 25.1716 15.1716C25.9217 14.4214 26.9391 14 28 14V14ZM28 16C27.4696 16 26.9609 16.2107 26.5858 16.5858C26.2107 16.9609 26 17.4696 26 18V20C26 20.5304 26.2107 21.0391 26.5858 21.4142C26.9609 21.7893 27.4696 22 28 22C28.5304 22 29.0391 21.7893 29.4142 21.4142C29.7893 21.0391 30 20.5304 30 20V18C30 17.4696 29.7893 16.9609 29.4142 16.5858C29.0391 16.2107 28.5304 16 28 16Z" fill="#C1C7CD"/>
</g>
<defs>
<filter id="filter0_d_3602_1702" x="0" y="0" width="56" height="56" filterUnits="userSpaceOnUse" color-interpolation-filters="sRGB">
<feFlood flood-opacity="0" result="BackgroundImageFix"/>
<feColorMatrix in="SourceAlpha" type="matrix" values="0 0 0 0 0 0 0 0 0 0 0 0 0 0 0 0 0 0 127 0" result="hardAlpha"/>
<feOffset dy="4"/>
<feGaussianBlur stdDeviation="2"/>
<feComposite in2="hardAlpha" operator="out"/>
<feColorMatrix type="matrix" values="0 0 0 0 0 0 0 0 0 0 0 0 0 0 0 0 0 0 0.25 0"/>
<feBlend mode="normal" in2="BackgroundImageFix" result="effect1_dropShadow_3602_1702"/>
<feBlend mode="normal" in="SourceGraphic" in2="effect1_dropShadow_3602_1702" result="shape"/>
</filter>
</defs>
</svg>
